<?xml version="1.0" encoding="UTF-8"?> <svg xmlns="http://www.w3.org/2000/svg" viewBox="0 0 287.22 106.3"><title>Asset 1</title><g id="1a2c60e1-7c36-4988-a948-bfd498064522" data-name="Layer 2"><g id="406ed730-d453-41cf-9bf1-2375692768a0" data-name="Layer 1"><g id="0a45908b-ef7e-4807-9931-65d33eaea0e9" data-name="8fcccb1b-677a-47b3-a47b-f881884beb70"><g id="5a4b9214-9290-4440-8c9e-deeea93cec3c" data-name="60c901dd-a0cc-4818-85cb-406ecfb0b0dc"><path d="M104.87,56.36H85.18a3.28,3.28,0,0,1,0-6.56h19.69a3.28,3.28,0,0,1,0,6.56ZM78,34.45a4.56,4.56,0,1,0-7.79,3.22,7.7,7.7,0,0,1,0,10.89h0a4.56,4.56,0,1,0,6.45,0,7.7,7.7,0,0,1,0-10.89h0A4.55,4.55,0,0,0,78,34.45ZM75.73,19.92H68.08a3.28,3.28,0,0,0,0,6.56h7.65a3.28,3.28,0,0,0,0-6.56Zm5.51,26.62a3.42,3.42,0,1,0-3.42-3.42h0A3.42,3.42,0,0,0,81.24,46.54ZM90.94,63a3.28,3.28,0,0,0-3.28-3.28H49.43a3.28,3.28,0,0,0,0,6.56H87.67A3.28,3.28,0,0,0,90.94,63ZM55.08,13.24a3.28,3.28,0,0,0,3.28,3.28H84.65a3.28,3.28,0,0,0,0-6.56H58.36A3.28,3.28,0,0,0,55.08,13.24Zm28.74,10a3.28,3.28,0,0,0,3.28,3.28h7.65a3.28,3.28,0,0,0,0-6.56H87.1a3.28,3.28,0,0,0-3.27,3.24ZM45.92,6.56H67.63a3.28,3.28,0,0,0,0-6.56H45.92a3.28,3.28,0,0,0,0,6.56Zm37.91,26.6a3.28,3.28,0,0,0,3.28,3.28h13.48a3.28,3.28,0,1,0,0-6.56H87.1A3.28,3.28,0,0,0,83.83,33.16ZM42.07,64.32a4.56,4.56,0,1,0-7.79,3.22,7.7,7.7,0,0,1,0,10.89h0a4.56,4.56,0,1,0,6.45,0,7.7,7.7,0,0,1,0-10.89h0A4.55,4.55,0,0,0,42.07,64.32Zm7.87,15.36a3.28,3.28,0,0,0,0,6.56H60a3.28,3.28,0,0,0,0-6.56H49.94ZM79.52,73a3.28,3.28,0,0,0-3.28-3.28H45.92a3.28,3.28,0,0,0,0,6.56H76.24A3.28,3.28,0,0,0,79.52,73ZM63.31,53.08A3.28,3.28,0,0,0,60,49.8H17.26a3.28,3.28,0,0,0,0,6.56H60a3.28,3.28,0,0,0,3.31-3.25Zm-.74-19.92a3.28,3.28,0,0,0-3.28-3.28H35.22a3.28,3.28,0,0,0,0,6.56H59.29a3.28,3.28,0,0,0,3.28-3.28ZM53.06,46.4a3.27,3.27,0,0,0,2.32-1,5.53,5.53,0,0,1,7.82,0h0a3.28,3.28,0,1,0,0-4.64,5.53,5.53,0,0,1-7.82,0h0a3.28,3.28,0,1,0-2.32,5.6Zm-24,30A3.42,3.42,0,1,0,25.67,73s0,0,0,0a3.42,3.42,0,0,0,3.42,3.42ZM29.81,63a3.28,3.28,0,0,0-3.28-3.28h-7.2a3.28,3.28,0,0,0,0,6.56h7.21A3.28,3.28,0,0,0,29.81,63ZM87.65,43.12a3.28,3.28,0,0,0,3.28,3.28h13a3.28,3.28,0,0,0,0-6.56h-13a3.28,3.28,0,0,0-3.28,3.28ZM68.07,99.6H50.72a3.28,3.28,0,1,0,0,6.56H68.07a3.28,3.28,0,1,0,0-6.56Zm18.7-10H72.15a3.28,3.28,0,0,0,0,6.56H86.77a3.28,3.28,0,0,0,0-6.56ZM40.93,99.46a3.42,3.42,0,1,0,3.42,3.42h0A3.42,3.42,0,0,0,40.93,99.46Zm23.92-6.54a3.28,3.28,0,0,0-3.28-3.28h-40a3.28,3.28,0,0,0,0,6.56h40A3.28,3.28,0,0,0,64.85,92.92ZM104.2,59.76H99.28a3.28,3.28,0,0,0,0,6.56h4.92a3.28,3.28,0,0,0,0-6.56ZM29,83a3.28,3.28,0,0,0-3.28-3.28H12.5a3.28,3.28,0,0,0,0,6.56H25.67A3.28,3.28,0,0,0,29,83Zm72.43-13.24H87.1a3.28,3.28,0,0,0,0,6.56h14.28a3.28,3.28,0,0,0,0-6.56Zm-5.4,10H71a3.28,3.28,0,0,0,0,6.56H96a3.28,3.28,0,0,0,0-6.56ZM4.41,46.4H44.18a3.28,3.28,0,1,0,0-6.56H4.41a3.28,3.28,0,0,0,0,6.56Zm9-19.92H57.65a3.28,3.28,0,0,0,0-6.56H13.43a3.28,3.28,0,0,0,0,6.56Zm8.37,6.68a3.42,3.42,0,1,0,3.42-3.42h0a3.42,3.42,0,0,0-3.4,3.42ZM7.55,36.44h7.78a3.28,3.28,0,0,0,0-6.56H7.55a3.28,3.28,0,0,0,0,6.56ZM22.36,73a3.28,3.28,0,0,0-3.28-3.28H6.89a3.28,3.28,0,0,0,0,6.56H19.08A3.28,3.28,0,0,0,22.36,73Zm1-56.48H33.89a3.28,3.28,0,1,0,0-6.56H23.39a3.28,3.28,0,0,0,0,6.56h0ZM42.7,13.24a3.42,3.42,0,1,0,3.42-3.42,3.42,3.42,0,0,0-3.42,3.42ZM10.48,66.32a3.28,3.28,0,0,0,0-6.56H4.07a3.28,3.28,0,1,0,0,6.56Zm-7.2-10H7.82a3.28,3.28,0,0,0,0-6.56H3.28a3.28,3.28,0,0,0,0,6.56Z" fill="#feffff"></path><path d="M128.88,21.31a10.92,10.92,0,0,1,10.94-10.9h.23a12.3,12.3,0,0,1,6.59,1.69,1.17,1.17,0,0,1,.36,1.78l-.54.72a1.18,1.18,0,0,1-1.59.51l-.15-.09a8.7,8.7,0,0,0-4.67-1.11,7.19,7.19,0,0,0-7.14,7.24q0,.09,0,.17a7.1,7.1,0,0,0,6.84,7.35h.6a8.42,8.42,0,0,0,4.25-1.11v-3.7h-4.21a1.17,1.17,0,0,1-1.26-1.29V22a1.14,1.14,0,0,1,1-1.26H147A1.14,1.14,0,0,1,148.3,22v6.08a2,2,0,0,1-.93,1.72,11.82,11.82,0,0,1-7.14,2.32C133.55,32.15,128.88,27.24,128.88,21.31Z" fill="#fff"></path><path d="M152.44,30.55V12a1.14,1.14,0,0,1,1-1.26h1.69A1.14,1.14,0,0,1,156.41,12V28.47h8.31a1.19,1.19,0,0,1,1.28,1.3v.78a1.17,1.17,0,0,1-1.07,1.26H153.71a1.14,1.14,0,0,1-1.27-1.26Z" fill="#fff"></path><path d="M166.48,21.28a11.07,11.07,0,1,1,11.27,10.87h-.19a10.86,10.86,0,0,1-11.08-10.64Q166.48,21.4,166.48,21.28Zm18.1,0a7,7,0,1,0-7,7A7,7,0,0,0,184.58,21.28Z" fill="#fff"></path><path d="M208.49,26c0,3.49-2.92,5.78-7.29,5.78h-7.65a1.14,1.14,0,0,1-1.26-1.26V12a1.14,1.14,0,0,1,1-1.26h7c4.19,0,7.23,2.11,7.23,5.6A4.67,4.67,0,0,1,203.81,21,5,5,0,0,1,208.49,26ZM196.26,13.9v5.9h2.89c3.13,0,4.36-1.54,4.36-3.1,0-1.81-1.53-2.8-3.43-2.8Zm8.25,11.86c0-1.63-1.39-3.22-4.67-3.22h-3.58v6h4.85c2,0,3.41-1.12,3.41-2.75Z" fill="#fff"></path><path d="M210.46,30.34l7.14-18.58a1.45,1.45,0,0,1,1.47-1h2a1.45,1.45,0,0,1,1.47,1l7.23,18.58c.33.87-.06,1.48-1,1.48h-1.45a1.47,1.47,0,0,1-1.5-1l-1.18-3.1h-9.09l-1.17,3.1a1.4,1.4,0,0,1-1.45,1h-1.44C210.52,31.82,210.13,31.21,210.46,30.34Zm13.22-5.81-3.61-9.79-3.61,9.79Z" fill="#fff"></path><path d="M232.69,30.55V12A1.14,1.14,0,0,1,234,10.74h1.44A1.14,1.14,0,0,1,236.66,12V28.47H245a1.19,1.19,0,0,1,1.29,1.29v.78a1.17,1.17,0,0,1-1,1.28H234a1.14,1.14,0,0,1-1.31-1.27Z" fill="#fff"></path><path d="M146.5,57.91c0,3.49-2.92,5.78-7.29,5.78h-7.65a1.14,1.14,0,0,1-1.26-1.26V43.88a1.14,1.14,0,0,1,1-1.26h7c4.19,0,7.23,2.11,7.23,5.6a4.67,4.67,0,0,1-3.68,4.61A5,5,0,0,1,146.5,57.91ZM134.27,45.8v5.9h2.89c3.13,0,4.36-1.54,4.36-3.1,0-1.81-1.53-2.8-3.43-2.8Zm8.25,11.86c0-1.63-1.39-3.22-4.67-3.22h-3.58v6h4.85c2,0,3.4-1.15,3.4-2.77Z" fill="#fff"></path><path d="M150.21,62.42V43.88a1.14,1.14,0,0,1,1-1.26h1.7a1.14,1.14,0,0,1,1.26,1.26V62.42a1.14,1.14,0,0,1-1,1.26h-1.7a1.14,1.14,0,0,1-1.26-1.26Z" fill="#fff"></path><path d="M157.83,53.15A11.07,11.07,0,1,1,169.12,64h-.21a10.86,10.86,0,0,1-11.08-10.64Q157.83,53.26,157.83,53.15Zm18.1,0a7,7,0,1,0-7,7,7,7,0,0,0,7-7Z" fill="#fff"></path><path d="M148.73,85A11.07,11.07,0,1,1,160,95.87h-.21a10.86,10.86,0,0,1-11.08-10.64Q148.73,85.13,148.73,85Zm18.1,0a7,7,0,1,0-7,7,7,7,0,0,0,7-7Z" fill="#fff"></path><path d="M244.09,85a11.07,11.07,0,1,1,11.29,10.85h-.21a10.86,10.86,0,0,1-11.08-10.64Q244.09,85.13,244.09,85Zm18.1,0a7,7,0,1,0-7,7,7,7,0,0,0,7-7Z" fill="#fff"></path><path d="M183.64,62.42V43.88a1.14,1.14,0,0,1,1-1.26h6.63c6.56,0,10.81,4.73,10.81,10.54S197.84,63.7,191.28,63.7H184.9a1.14,1.14,0,0,1-1.26-1.28ZM191,60.35c4.34,0,7-3.13,7-7.2s-2.68-7.23-7-7.2h-3.43v14.4Z" fill="#fff"></path><path d="M203,62.21l7.14-18.58a1.46,1.46,0,0,1,1.47-1h2a1.46,1.46,0,0,1,1.47,1l7.23,18.58c.33.87-.06,1.47-1,1.47h-1.45a1.47,1.47,0,0,1-1.51-1l-1.17-3.1h-9.09l-1.17,3.1a1.4,1.4,0,0,1-1.45,1H204C203.09,63.69,202.7,63.09,203,62.21Zm13.22-5.81-3.61-9.79L209,56.4Z" fill="#fff"></path><path d="M238.13,43.88v.78A1.17,1.17,0,0,1,236.86,46H231.5V62.42a1.14,1.14,0,0,1-1,1.26h-1.67a1.14,1.14,0,0,1-1.26-1.26V46h-5.33A1.17,1.17,0,0,1,221,44.66v-.78a1.14,1.14,0,0,1,1-1.26h14.88a1.14,1.14,0,0,1,1.24,1.26Z" fill="#fff"></path><path d="M236.8,62.21l7.14-18.58a1.46,1.46,0,0,1,1.47-1h2a1.46,1.46,0,0,1,1.47,1l7.23,18.58c.33.87-.06,1.47-1,1.47h-1.45a1.47,1.47,0,0,1-1.51-1L251,59.58h-9.09l-1.17,3.1a1.4,1.4,0,0,1-1.45,1h-1.45C236.86,63.69,236.46,63.09,236.8,62.21ZM250,56.4l-3.61-9.79-3.61,9.79Z" fill="#fff"></path><path d="M128.88,85c0-5.87,4.34-10.87,11.47-10.87A10.93,10.93,0,0,1,146.68,76a1.17,1.17,0,0,1,.3,1.78l-.48.69c-.45.69-1,.75-1.78.33a9.09,9.09,0,0,0-4.37-1.14,7.38,7.38,0,1,0-.54,14.75h.54a9.07,9.07,0,0,0,4.37-1.14c.75-.42,1.32-.36,1.78.33l.48.69c.45.69.42,1.24-.15,1.66a10.88,10.88,0,0,1-6.47,2C133.22,95.89,128.88,90.89,128.88,85Z" fill="#fff"></path><path d="M171.66,94.09l7.14-18.58a1.46,1.46,0,0,1,1.47-1h2a1.46,1.46,0,0,1,1.47,1L191,94.09c.33.87-.06,1.47-1,1.47h-1.45a1.47,1.47,0,0,1-1.51-1l-1.17-3.1h-9.09l-1.17,3.1a1.4,1.4,0,0,1-1.45,1h-1.45C171.71,95.56,171.32,95,171.66,94.09Zm13.22-5.81-3.61-9.79-3.61,9.79Z" fill="#fff"></path><path d="M193.88,94.3V75.75a1.14,1.14,0,0,1,1-1.26h1.7a1.14,1.14,0,0,1,1.26,1.26V92.22h8.31a1.19,1.19,0,0,1,1.3,1.29v.78a1.17,1.17,0,0,1-1.07,1.26H195.16a1.14,1.14,0,0,1-1.28-1.25Z" fill="#fff"></path><path d="M210.06,94.3V75.75a1.14,1.14,0,0,1,1-1.26h1.69A1.14,1.14,0,0,1,214,75.75V94.3a1.14,1.14,0,0,1-1,1.26H211.3a1.14,1.14,0,0,1-1.24-1.26Z" fill="#fff"></path><path d="M233.82,75.75v.78a1.17,1.17,0,0,1-1,1.29H227.2V94.3a1.14,1.14,0,0,1-1,1.26h-1.67a1.14,1.14,0,0,1-1.26-1.26V77.83h-5.33a1.17,1.17,0,0,1-1.26-1.29v-.78a1.14,1.14,0,0,1,1-1.26h14.88a1.14,1.14,0,0,1,1.26,1.25Z" fill="#fff"></path><path d="M236.48,94.3V75.75a1.14,1.14,0,0,1,1-1.26h1.7a1.14,1.14,0,0,1,1.26,1.26V94.3a1.14,1.14,0,0,1-1,1.26h-1.7a1.14,1.14,0,0,1-1.26-1.26Z" fill="#fff"></path><path d="M269.9,94.3V75.75a1.14,1.14,0,0,1,1-1.26H272a1.8,1.8,0,0,1,1.57.78l9.64,13.1V75.75a1.14,1.14,0,0,1,1-1.26h1.7a1.17,1.17,0,0,1,1.3,1.26V94.3a1.17,1.17,0,0,1-1.07,1.26h-1a1.83,1.83,0,0,1-1.57-.78l-9.67-13.19V94.3a1.14,1.14,0,0,1-1,1.26h-1.69a1.14,1.14,0,0,1-1.33-1.26Z" fill="#fff"></path></g></g></g></g></svg> 