<?xml version="1.0" encoding="utf-8"?>
<!-- Generator: Adobe Illustrator 16.0.4, SVG Export Plug-In . SVG Version: 6.00 Build 0)  -->
<!DOCTYPE svg PUBLIC "-//W3C//DTD SVG 1.1//EN" "http://www.w3.org/Graphics/SVG/1.1/DTD/svg11.dtd">
<svg version="1.1" id="Layer_1" xmlns="http://www.w3.org/2000/svg" xmlns:xlink="http://www.w3.org/1999/xlink" x="0px" y="0px"
	 width="390.407px" height="242.446px" viewBox="0 0 390.407 242.446" enable-background="new 0 0 390.407 242.446"
	 xml:space="preserve">
<ellipse fill="#850303" cx="56.311" cy="38.835" rx="56.311" ry="38.834"/>
<ellipse fill="#850303" cx="216.136" cy="122.058" rx="174.271" ry="120.389"/>
<g opacity="0.2">
	<path fill="#F2F2F2" d="M132.305,152.697H83.032v-22.246l49.273-58.57h23.574v59.832h12.219v20.984h-12.219v18.195h-23.574V152.697
		z M132.305,131.713v-30.637l-26.035,30.637H132.305z"/>
	<path fill="#F2F2F2" d="M176.532,121.818c0-18.504,3.331-31.454,9.994-38.848c6.662-7.393,16.812-11.09,30.447-11.09
		c6.552,0,11.931,0.808,16.137,2.424c4.205,1.617,7.637,3.719,10.293,6.309s4.748,5.312,6.275,8.168s2.756,6.187,3.686,9.994
		c1.814,7.261,2.723,14.832,2.723,22.711c0,17.664-2.988,30.591-8.965,38.781s-16.27,12.285-30.879,12.285
		c-8.19,0-14.809-1.306-19.855-3.918s-9.187-6.441-12.418-11.488c-2.347-3.586-4.173-8.489-5.479-14.709
		C177.185,136.218,176.532,129.345,176.532,121.818z M203.36,121.885c0,12.396,1.096,20.862,3.287,25.4s5.367,6.807,9.529,6.807
		c2.744,0,5.124-0.963,7.139-2.889c2.014-1.926,3.497-4.97,4.449-9.131c0.951-4.161,1.428-10.647,1.428-19.457
		c0-12.926-1.096-21.615-3.287-26.064s-5.479-6.674-9.861-6.674c-4.472,0-7.703,2.269-9.695,6.807
		C204.356,101.222,203.36,109.623,203.36,121.885z"/>
	<path fill="#F2F2F2" d="M313.728,152.697h-49.273v-22.246l49.273-58.57h23.574v59.832h12.219v20.984h-12.219v18.195h-23.574
		V152.697z M313.728,131.713v-30.637l-26.035,30.637H313.728z"/>
</g>
</svg>
