<?xml version="1.0" encoding="utf-8"?>
<!-- Generator: Adobe Illustrator 16.0.4, SVG Export Plug-In . SVG Version: 6.00 Build 0)  -->
<!DOCTYPE svg PUBLIC "-//W3C//DTD SVG 1.1//EN" "http://www.w3.org/Graphics/SVG/1.1/DTD/svg11.dtd">
<svg version="1.1" id="Layer_1" xmlns="http://www.w3.org/2000/svg" xmlns:xlink="http://www.w3.org/1999/xlink" x="0px" y="0px"
	 width="390.407px" height="242.446px" viewBox="0 0 390.407 242.446" enable-background="new 0 0 390.407 242.446"
	 xml:space="preserve">
<ellipse fill="#850303" cx="56.311" cy="38.835" rx="56.311" ry="38.834"/>
<ellipse fill="#850303" cx="216.136" cy="122.058" rx="174.271" ry="120.389"/>
<path opacity="0.1" fill="#FFFFFF" d="M297.937,96.24l-7.814-18.866l-20.23,1.012c-3.873-5.146-8.385-9.644-13.416-13.42
	l0.037-0.043l1.061-20.318l-18.859-7.822L225.083,51.89l-0.008,0.031c-6.229-0.883-12.619-0.933-18.988-0.025l-13.629-15.122
	l-18.867,7.815l1.056,20.32c-5.152,3.873-9.628,8.422-13.403,13.46l-0.038-0.021l-20.317-1.045l-7.799,18.854l15.104,13.616
	l0.038,0.021c-0.731,5.835-1.035,12.658-0.134,19.038l-15.207,13.662l7.812,18.869l20.414-1.086
	c3.868,5.145,8.472,9.613,13.495,13.386l0.013,0.024l-1.03,20.312l20.668,7.814l15.438-15.11v-0.033
	c4,0.731,10.818,0.935,17.193,0.04l12.729,15.114l18.42-7.813l-1.285-20.324c5.145-3.875,9.521-8.424,13.297-13.455l-0.023,0.011
	l20.287,1.047l7.803-18.864l-15.121-13.624l-0.033-0.019c0.877-6.223,0.852-12.58-0.051-18.953L297.937,96.24z M228.61,150.741
	c-17.359,7.189-37.269-1.053-44.461-18.422c-7.196-17.363,1.047-37.271,18.415-44.464c17.371-7.192,37.273,1.053,44.47,18.417
	C254.222,123.644,245.976,143.547,228.61,150.741z"/>
</svg>
